<?xml version="1.0" standalone="no"?>
<!DOCTYPE svg PUBLIC "-//W3C//DTD SVG 20010904//EN"
 "http://www.w3.org/TR/2001/REC-SVG-20010904/DTD/svg10.dtd">
<svg version="1.0" xmlns="http://www.w3.org/2000/svg"
 width="640.000000pt" height="640.000000pt" viewBox="0 0 640.000000 640.000000"
 preserveAspectRatio="xMidYMid meet">
<metadata>
Created by potrace 1.14, written by Peter Selinger 2001-2017
</metadata>
<g transform="translate(0.000000,640.000000) scale(0.100000,-0.100000)"
fill="#000000" stroke="none">
<path d="M2971 6042 c-1 -7 -5 -10 -11 -7 -5 3 -10 3 -10 -2 0 -4 -25 -8 -55
-7 -33 0 -55 -4 -55 -10 0 -6 -4 -5 -9 3 -8 12 -12 12 -24 2 -12 -9 -16 -9
-20 1 -4 10 -6 10 -6 1 -1 -7 -10 -13 -22 -13 -11 0 -17 -4 -14 -10 3 -5 1
-10 -5 -10 -6 0 -16 -13 -21 -30 -6 -16 -15 -30 -21 -30 -5 0 -6 -4 -3 -10 3
-5 1 -10 -4 -10 -6 0 -10 -3 -9 -7 4 -13 -56 -92 -69 -93 -7 0 -13 -5 -13 -11
0 -5 -4 -7 -10 -4 -5 3 -10 -2 -10 -11 0 -10 -3 -14 -7 -11 -3 4 -15 -1 -26
-10 -15 -13 -18 -14 -12 -3 6 12 5 12 -5 3 -7 -6 -19 -9 -28 -6 -9 4 -13 2 -9
-4 4 -6 -4 -13 -18 -15 -14 -3 -25 -2 -25 1 0 4 -13 6 -30 5 -17 -1 -30 3 -30
9 0 7 -5 5 -10 -3 -7 -11 -10 -11 -10 -2 0 7 -4 10 -10 7 -5 -3 -10 -1 -10 6
0 7 -3 9 -7 6 -3 -4 -12 -2 -20 4 -7 6 -13 8 -13 4 0 -4 -10 3 -23 16 -13 13
-29 25 -37 27 -7 2 -20 11 -28 20 -9 11 -11 12 -6 2 6 -12 3 -11 -12 2 -13 11
-24 14 -34 8 -8 -5 -18 -6 -22 -4 -4 3 -8 1 -8 -4 0 -6 -6 -10 -12 -9 -35 1
-49 -4 -42 -15 5 -8 2 -9 -9 -5 -10 4 -17 1 -17 -5 0 -6 -3 -8 -7 -5 -3 4 -12
2 -19 -3 -6 -6 -18 -9 -25 -8 -8 2 -13 -4 -11 -12 2 -8 0 -12 -4 -8 -14 14
-104 -49 -104 -74 0 -4 6 -8 13 -8 7 -1 5 -6 -6 -14 -10 -8 -14 -17 -9 -20 13
-8 3 -56 -12 -56 -7 0 -6 -3 2 -8 10 -7 8 -14 -6 -33 -11 -13 -17 -30 -14 -38
3 -8 0 -11 -7 -7 -6 4 -11 1 -11 -8 0 -9 -5 -16 -10 -16 -6 0 -15 -11 -22 -25
-6 -13 -15 -22 -19 -19 -5 3 -9 1 -9 -4 0 -6 -18 -19 -40 -30 -22 -10 -36 -23
-32 -27 4 -5 -1 -5 -10 -2 -10 3 -20 2 -22 -2 -3 -5 -16 -8 -28 -7 -13 1 -26
-3 -30 -9 -5 -6 -8 -5 -8 4 0 11 -3 11 -14 2 -11 -9 -20 -10 -36 -1 -11 6 -26
8 -32 4 -7 -4 -8 -3 -4 4 4 7 3 12 -3 12 -5 0 -13 -5 -16 -10 -4 -6 -12 -4
-21 5 -9 8 -20 13 -25 10 -5 -4 -9 -1 -9 5 0 6 -4 9 -9 6 -5 -4 -12 0 -14 6
-4 10 -6 10 -6 0 -1 -7 -6 -10 -12 -7 -5 4 -24 -8 -42 -27 -18 -18 -33 -32
-34 -30 -8 7 -23 0 -18 -8 3 -5 2 -10 -3 -10 -5 0 -21 -11 -36 -25 -14 -13
-26 -22 -26 -19 0 3 -12 -9 -27 -27 -16 -18 -27 -37 -25 -41 1 -4 -2 -8 -6 -8
-11 0 -9 -31 3 -49 6 -10 4 -12 -6 -7 -8 4 -6 1 3 -7 13 -10 15 -16 6 -25 -9
-9 -9 -12 1 -12 7 0 11 -6 8 -14 -3 -8 -3 -17 1 -20 9 -10 10 -46 0 -46 -5 0
-6 -5 -2 -11 3 -6 0 -15 -7 -20 -12 -7 -12 -9 0 -9 11 0 11 -3 0 -17 -12 -15
-12 -16 1 -8 9 5 7 -1 -5 -14 -11 -13 -19 -26 -19 -30 3 -14 -19 -50 -27 -45
-5 3 -9 1 -9 -5 0 -11 -50 -64 -50 -53 -1 4 -10 -4 -20 -17 -11 -13 -20 -20
-20 -15 0 4 -7 -1 -16 -12 -8 -10 -13 -13 -9 -6 3 6 1 12 -4 12 -6 0 -11 -5
-11 -11 0 -5 -4 -8 -9 -4 -5 3 -12 2 -15 -3 -2 -4 -24 -9 -48 -11 -23 -1 -44
-4 -47 -6 -2 -3 -10 0 -18 6 -10 9 -13 8 -13 -2 0 -11 -2 -11 -10 1 -5 8 -10
10 -10 4 0 -7 -8 -11 -17 -10 -10 0 -18 -5 -18 -12 0 -7 -7 -17 -15 -22 -8 -5
-15 -15 -15 -22 -1 -7 -7 -12 -14 -10 -7 1 -10 -2 -6 -7 3 -6 -3 -19 -15 -31
-11 -11 -15 -20 -9 -20 6 0 3 -7 -5 -16 -9 -8 -16 -22 -16 -30 0 -8 -3 -14 -7
-14 -11 0 -33 -51 -27 -61 3 -5 1 -9 -4 -9 -11 0 -3 -49 10 -65 30 -36 56 -85
45 -85 -7 0 -4 -5 5 -11 11 -6 18 -22 18 -39 0 -17 5 -30 13 -30 8 0 9 -3 1
-8 -6 -4 -10 -15 -8 -24 1 -10 -1 -20 -6 -23 -4 -2 -6 -16 -5 -30 2 -14 0 -23
-5 -20 -8 5 -25 -43 -21 -60 2 -5 -1 -7 -5 -3 -4 4 -17 -5 -28 -21 -12 -15
-25 -28 -30 -29 -5 0 -13 -7 -18 -16 -5 -9 -14 -13 -20 -10 -6 4 -9 3 -6 -2 3
-5 0 -15 -8 -22 -8 -7 -14 -10 -14 -6 0 3 -6 1 -13 -5 -8 -6 -17 -8 -20 -4 -4
3 -7 2 -7 -4 0 -6 -9 -9 -20 -6 -12 3 -20 0 -20 -6 0 -7 -6 -11 -14 -9 -17 4
-58 -41 -50 -53 3 -5 2 -9 -3 -9 -4 0 -9 -19 -11 -42 -1 -23 -8 -48 -14 -55
-8 -10 -7 -13 3 -13 10 0 10 -3 1 -12 -7 -7 -12 -22 -12 -33 0 -12 -3 -25 -7
-28 -10 -11 -12 -77 -1 -77 5 0 6 -4 3 -10 -3 -5 -1 -10 5 -10 6 0 8 -4 5 -10
-3 -5 -2 -10 3 -10 13 0 91 -78 84 -85 -3 -3 1 -5 8 -5 7 0 10 -3 7 -7 -4 -3
1 -11 10 -18 9 -7 18 -23 20 -36 2 -13 8 -26 14 -27 6 -3 6 -9 -2 -18 -9 -11
-8 -14 1 -14 8 0 11 -3 8 -6 -4 -3 -2 -19 2 -35 5 -18 5 -29 -1 -29 -6 0 -8
-4 -4 -9 3 -5 1 -12 -5 -16 -6 -4 -8 -11 -5 -16 4 -5 2 -9 -2 -9 -5 0 -19 -22
-32 -50 -13 -27 -27 -47 -32 -44 -5 3 -9 -2 -9 -11 0 -9 -4 -14 -9 -10 -5 3
-12 -4 -16 -15 -3 -11 -11 -20 -16 -20 -6 0 -17 -7 -25 -15 -8 -8 -22 -18 -30
-23 -16 -9 -26 -139 -11 -149 4 -2 4 -9 1 -15 -4 -6 -1 -14 7 -18 10 -7 10
-11 0 -24 -8 -9 -9 -16 -4 -16 5 0 9 -15 8 -34 0 -19 3 -32 7 -30 4 3 8 0 8
-5 0 -6 -4 -11 -10 -11 -5 0 -7 -7 -4 -15 5 -12 109 -69 116 -63 4 3 47 -33
62 -50 6 -8 21 -24 33 -37 13 -12 23 -28 23 -34 0 -7 4 -9 10 -6 6 3 7 -1 4
-9 -4 -10 -1 -16 7 -16 7 0 9 -3 6 -7 -4 -3 -2 -12 5 -20 13 -15 18 -63 7 -63
-10 0 -6 -34 5 -41 4 -4 3 -16 -3 -28 -7 -11 -8 -21 -4 -21 4 0 0 -5 -10 -11
-9 -6 -15 -14 -12 -20 4 -5 -3 -21 -14 -35 -12 -15 -21 -32 -21 -39 0 -7 -10
-20 -23 -29 -12 -9 -15 -14 -7 -11 10 5 10 2 -2 -8 -13 -10 -15 -16 -6 -25 9
-9 9 -12 -1 -12 -10 0 -11 -3 -2 -13 6 -8 8 -17 4 -20 -3 -4 -2 -7 4 -7 6 0 9
-9 6 -20 -3 -12 0 -20 6 -20 7 0 10 -4 7 -9 -3 -4 3 -19 14 -31 11 -12 17 -27
14 -31 -3 -5 -1 -9 5 -9 6 0 8 -7 5 -15 -4 -8 -1 -15 6 -15 6 0 8 -4 5 -10 -3
-5 -2 -10 3 -10 5 0 16 -17 24 -37 14 -38 15 -38 71 -38 33 0 57 -4 57 -10 0
-5 5 -3 10 5 7 11 10 11 10 2 0 -7 4 -10 10 -7 5 3 10 2 10 -4 0 -5 9 -8 20
-6 11 2 18 0 15 -6 -4 -5 1 -9 9 -9 9 0 16 -5 16 -11 0 -5 5 -7 10 -4 6 3 10
1 10 -5 0 -6 3 -9 8 -7 4 2 15 -4 25 -15 9 -10 14 -18 10 -18 -4 0 3 -7 15
-16 12 -8 22 -22 22 -30 0 -8 5 -14 10 -14 6 0 10 -7 10 -15 0 -8 4 -15 10
-15 5 0 7 -7 4 -15 -4 -9 0 -15 7 -15 11 0 11 -3 -1 -10 -12 -8 -12 -10 -1
-10 8 0 11 -3 8 -7 -4 -3 -2 -12 4 -19 7 -8 7 -14 -1 -19 -8 -5 -8 -11 1 -21
9 -11 9 -14 -1 -14 -9 0 -10 -3 -1 -14 9 -10 8 -16 -3 -25 -8 -7 -18 -32 -22
-57 -3 -24 -10 -41 -15 -39 -15 10 14 -60 33 -76 9 -9 15 -19 11 -23 -3 -3 1
-6 10 -6 9 0 17 -5 17 -10 0 -23 116 -144 130 -135 5 3 10 1 10 -6 0 -8 5 -7
17 2 15 12 16 12 8 -1 -7 -12 -6 -13 6 -3 9 7 24 14 35 16 10 1 25 6 32 10 7
5 12 3 12 -4 0 -8 4 -8 15 1 12 10 15 10 15 0 0 -9 4 -9 13 -3 15 13 47 13 47
1 0 -5 5 -6 11 -2 13 7 89 -25 89 -38 0 -5 5 -6 10 -3 6 3 10 -1 10 -9 0 -9 6
-16 14 -16 8 0 18 -9 21 -20 3 -11 13 -20 21 -20 8 0 14 -4 14 -10 0 -5 10
-19 23 -31 12 -12 15 -18 7 -14 -12 7 -13 6 -3 -7 7 -8 10 -18 6 -21 -3 -4 0
-7 7 -7 7 0 10 -3 7 -7 -4 -3 -2 -12 4 -20 6 -7 9 -13 5 -13 -3 0 -1 -11 4
-25 6 -16 6 -25 -1 -25 -6 0 -6 -6 0 -19 6 -10 7 -21 4 -25 -11 -11 -12 -36
-2 -36 6 0 9 -7 7 -15 -2 -9 10 -23 27 -33 17 -9 32 -20 33 -25 2 -4 8 -5 13
-1 5 3 9 0 9 -5 0 -6 6 -11 14 -11 8 0 22 -7 30 -16 9 -9 16 -11 16 -4 0 6 11
0 23 -14 13 -14 27 -23 31 -19 4 4 11 2 15 -5 4 -7 18 -14 29 -15 12 -1 22 -5
22 -10 0 -5 7 -4 15 3 8 7 15 9 15 6 0 -4 7 -1 15 6 33 30 45 38 55 38 5 0 10
5 10 11 0 6 6 9 14 6 8 -3 17 2 21 11 5 14 7 14 16 2 6 -11 11 -12 17 -4 8 13
74 25 66 12 -3 -4 0 -8 5 -8 6 0 11 6 11 13 1 8 4 7 13 -3 7 -8 23 -15 37 -15
23 0 90 -39 98 -57 2 -5 9 -8 16 -8 7 0 19 -12 27 -27 18 -36 52 -86 63 -94 4
-4 2 -9 -5 -12 -11 -4 -11 -6 -1 -6 7 -1 10 -5 7 -11 -3 -5 -1 -10 5 -10 6 0
8 -4 5 -10 -3 -5 -2 -10 4 -10 6 0 8 -6 5 -14 -6 -15 29 -40 40 -29 3 3 6 1 6
-6 0 -7 4 -10 9 -7 5 4 12 0 14 -6 4 -10 6 -10 6 0 1 9 6 10 19 4 9 -5 25 -8
35 -7 9 2 17 0 17 -5 0 -4 12 -7 26 -7 15 0 30 -7 35 -14 7 -12 9 -12 9 0 0
10 3 11 14 2 11 -9 15 -9 19 1 3 9 9 7 21 -7 8 -11 16 -15 16 -8 0 7 7 10 15
7 8 -3 24 1 37 10 12 9 19 16 14 16 -4 0 12 16 36 36 23 20 51 45 61 55 10 11
22 17 27 14 4 -3 11 2 14 11 3 8 14 14 24 12 11 -2 26 3 35 11 13 10 17 10 17
1 0 -9 4 -9 13 -2 8 7 18 7 27 2 8 -5 21 -5 31 0 11 7 22 3 38 -11 11 -11 21
-17 21 -13 0 3 7 1 15 -6 12 -10 15 -10 15 1 0 8 9 1 19 -14 10 -16 22 -29 27
-29 5 0 8 -4 7 -9 -2 -5 4 -9 12 -9 8 0 15 -3 15 -8 0 -4 10 -18 23 -32 12
-14 32 -38 44 -53 12 -16 24 -23 28 -17 4 7 12 7 26 0 12 -7 19 -7 19 -1 0 5
9 8 20 6 11 -2 20 1 20 6 0 6 6 7 16 1 17 -9 66 -4 60 7 -2 3 7 6 20 6 13 0
24 -3 24 -6 0 -3 7 -6 15 -6 8 0 12 4 9 9 -3 4 0 8 5 8 6 0 11 -5 11 -11 0 -8
5 -8 15 1 8 7 22 10 30 6 9 -3 13 -2 10 4 -3 6 -1 10 5 10 6 0 9 4 6 9 -4 5
-1 11 4 13 6 2 12 12 14 21 1 10 8 22 15 26 7 4 11 12 10 17 -3 19 1 35 9 30
4 -2 14 9 21 25 7 17 15 28 18 25 3 -3 16 7 29 21 13 14 24 22 24 17 0 -5 5
-1 11 9 5 9 17 17 24 17 8 0 15 4 15 10 0 5 3 9 8 9 24 -4 52 2 47 11 -4 7 3
7 19 0 17 -6 26 -6 26 1 0 6 6 6 19 0 10 -6 21 -8 24 -4 4 3 13 0 22 -7 8 -7
15 -9 15 -5 0 4 8 1 17 -6 13 -11 15 -11 9 -1 -7 11 -4 11 13 0 12 -7 21 -16
21 -20 0 -5 5 -8 11 -8 7 0 20 -9 30 -21 9 -11 20 -20 23 -20 21 3 26 -1 20
-11 -4 -7 -4 -10 1 -6 4 4 16 3 26 -3 13 -6 19 -6 19 0 0 6 7 8 15 5 8 -4 15
-2 15 4 0 5 20 15 44 21 25 6 48 16 51 21 4 6 11 8 16 5 5 -4 9 -2 9 3 0 5 10
13 23 17 12 4 24 8 27 10 3 1 20 8 38 15 18 7 31 15 28 18 -3 3 2 11 12 18 10
8 12 13 5 14 -9 0 -10 7 -3 25 7 18 6 25 -3 25 -9 0 -8 3 1 9 8 4 13 11 12 15
-8 25 31 132 43 120 3 -3 8 3 11 13 3 10 19 27 35 38 16 10 27 23 25 27 -3 4
0 8 7 8 7 0 21 8 31 17 19 17 37 23 71 26 9 1 17 4 17 8 0 8 54 4 70 -6 9 -5
11 -4 6 3 -9 15 26 3 36 -12 5 -8 8 -7 8 1 0 9 9 8 35 -3 20 -8 40 -12 45 -9
6 4 10 1 10 -4 0 -6 9 -10 19 -8 25 4 52 27 45 38 -3 5 1 6 9 3 8 -3 27 10 45
30 16 19 32 32 35 30 3 -3 8 4 12 15 6 19 17 25 38 22 4 0 7 3 7 8 0 5 8 17
17 27 20 19 29 64 13 64 -5 0 -10 5 -10 11 0 5 5 7 11 3 8 -4 8 0 0 15 -7 12
-9 27 -5 33 4 7 3 8 -4 4 -7 -4 -12 -2 -12 3 0 6 5 11 12 11 7 0 6 6 -4 18 -8
9 -13 26 -12 37 8 52 10 60 17 66 4 3 9 16 10 27 1 12 5 22 9 22 4 0 7 3 6 8
-4 11 28 53 35 45 4 -3 7 -2 7 4 0 14 47 63 54 56 3 -3 8 1 12 10 3 9 19 19
35 22 16 4 29 10 29 14 0 4 28 8 63 10 103 4 117 6 117 13 0 5 7 8 16 8 8 0
12 5 9 10 -3 5 -1 10 6 10 7 0 9 3 6 6 -4 4 3 15 14 25 11 9 20 19 19 21 -5 9
24 57 32 52 5 -3 7 -2 6 3 -3 14 13 57 30 76 15 17 24 57 13 57 -3 0 -7 11 -7
25 -1 14 -12 34 -25 46 -13 11 -17 17 -10 13 9 -5 6 5 -7 24 -13 17 -24 45
-25 62 -1 16 -6 30 -11 30 -5 0 -3 7 4 15 7 9 10 18 6 22 -3 3 -6 0 -6 -7 0
-7 -3 -10 -6 -7 -4 4 -1 13 6 22 8 10 9 15 1 15 -15 0 -10 22 9 38 13 12 13
13 0 6 -10 -5 -8 1 5 16 11 13 14 20 8 16 -9 -5 -11 -2 -7 8 3 9 10 14 14 11
5 -3 11 4 15 15 8 24 114 120 133 120 7 0 10 4 7 10 -3 6 1 7 10 4 9 -4 25 2
37 12 12 11 18 13 14 7 -4 -8 -1 -13 9 -13 9 0 13 5 10 11 -4 6 0 9 10 7 11
-2 21 6 26 20 6 16 5 21 -2 16 -6 -3 -4 7 5 24 8 16 12 32 9 36 -4 3 0 6 8 6
11 0 11 2 -1 10 -8 5 -10 10 -3 10 6 0 10 11 8 25 -1 14 2 25 8 25 6 0 7 3 4
7 -4 3 -2 12 4 20 9 10 8 13 -2 13 -11 1 -11 3 1 13 24 20 20 95 -7 117 -12 9
-19 20 -16 24 4 3 -1 6 -10 6 -9 0 -17 3 -17 8 0 4 -14 21 -30 39 -17 18 -30
37 -30 42 0 6 -8 11 -17 11 -15 0 -16 2 -3 10 12 7 12 10 1 10 -7 0 -11 6 -8
14 3 7 1 18 -4 23 -5 5 -10 22 -12 39 -2 16 -7 35 -11 42 -4 7 -3 12 2 12 9 0
26 55 23 73 0 4 4 7 10 7 5 0 8 4 5 8 -3 5 6 20 19 34 13 14 23 27 22 29 -2 2
10 16 25 31 15 15 28 25 28 22 0 -3 12 6 27 20 15 14 30 23 35 20 4 -3 8 4 8
15 0 12 5 21 10 21 7 0 7 6 1 19 -6 10 -7 21 -4 25 3 3 1 6 -7 6 -10 0 -10 3
1 16 7 9 9 18 3 22 -5 4 -9 30 -9 59 0 28 -3 49 -7 46 -5 -2 -8 1 -8 6 0 6 5
11 12 11 6 0 3 9 -7 20 -10 11 -14 20 -9 20 5 0 10 9 10 20 0 11 -4 20 -9 20
-4 0 -5 5 -1 12 4 6 3 8 -4 4 -6 -3 -17 0 -25 8 -8 8 -17 12 -21 9 -3 -4 -6
-1 -6 6 0 8 -7 11 -15 7 -8 -3 -15 -1 -15 5 0 6 -4 7 -10 4 -5 -3 -10 -2 -10
2 0 5 -18 22 -39 39 -22 16 -37 32 -34 36 2 5 -3 8 -11 8 -9 0 -16 5 -16 11 0
7 -7 17 -15 23 -8 6 -17 22 -20 35 -2 14 -10 28 -17 33 -7 4 -9 8 -3 8 5 0 4
5 -2 11 -7 7 -8 21 -2 41 4 17 6 35 3 40 -8 12 18 98 29 98 4 0 6 4 3 9 -3 5
1 12 10 15 9 4 14 13 10 22 -3 8 -2 13 2 11 4 -3 13 1 20 9 7 8 10 14 6 14 -3
0 -1 7 6 15 7 8 9 15 6 15 -4 0 0 8 10 17 11 11 13 18 5 21 -6 2 -9 8 -5 13 3
5 0 9 -6 9 -6 0 -8 5 -5 11 4 5 -1 19 -11 30 -9 10 -14 19 -9 19 4 0 2 7 -5
15 -7 8 -9 15 -4 15 4 0 -1 7 -12 16 -10 8 -13 13 -7 9 9 -4 11 -1 7 9 -3 9
-10 13 -15 10 -5 -3 -6 2 -3 10 4 10 -1 18 -11 22 -13 5 -14 9 -3 15 10 7 11
9 0 9 -7 0 -10 5 -7 10 3 6 1 10 -4 10 -6 0 -11 6 -11 13 0 16 -37 40 -42 27
-2 -6 -14 -4 -29 4 -16 8 -33 10 -47 5 -12 -5 -24 -4 -27 2 -4 5 -11 7 -16 4
-5 -4 -9 -1 -9 4 0 6 -3 10 -7 9 -13 -3 -63 25 -63 34 0 5 -4 7 -9 3 -5 -3
-12 4 -16 15 -3 11 -11 20 -16 20 -13 0 -58 52 -59 68 0 6 -5 12 -11 12 -5 0
-7 5 -4 10 3 6 1 10 -5 10 -6 0 -8 5 -5 10 3 6 2 10 -3 10 -13 0 -15 96 -2
120 8 15 8 20 -2 20 -9 0 -10 3 -2 8 6 4 10 15 8 25 -1 9 2 15 7 11 8 -4 14
25 10 49 0 4 3 7 8 7 12 0 2 41 -15 61 -8 9 -11 18 -8 21 3 4 -4 9 -15 13 -12
3 -21 12 -21 18 0 7 -23 34 -50 61 -28 27 -50 53 -50 58 0 5 -4 6 -10 3 -5 -3
-10 -1 -10 5 0 6 -4 9 -9 6 -5 -4 -11 0 -14 6 -3 10 -7 10 -20 -1 -13 -10 -17
-10 -17 -1 0 9 -3 10 -13 1 -8 -6 -17 -8 -20 -4 -4 3 -7 1 -7 -6 0 -7 -4 -9
-10 -6 -5 3 -19 1 -30 -5 -11 -6 -20 -7 -20 -2 0 5 -7 9 -15 9 -8 0 -12 -4 -9
-9 3 -4 1 -8 -5 -8 -5 0 -13 5 -17 11 -4 8 -9 7 -15 -2 -5 -8 -9 -9 -9 -4 0 6
-10 12 -22 12 -13 1 -24 7 -26 12 -2 5 -9 8 -16 5 -8 -3 -35 15 -62 40 -27 25
-52 46 -56 46 -5 0 -8 7 -8 15 0 8 -4 15 -10 15 -5 0 -10 9 -10 21 0 11 -4 18
-9 14 -6 -3 -8 4 -6 15 2 11 -1 20 -6 20 -6 0 -7 5 -4 10 3 6 1 10 -5 10 -6 0
-8 5 -4 12 12 19 9 54 -5 72 -9 11 -10 16 -2 16 6 0 11 5 11 11 0 5 -5 7 -11
3 -8 -5 -8 -1 0 14 7 14 8 23 1 27 -6 4 -7 11 -4 17 4 7 2 8 -4 4 -7 -4 -12
-2 -12 4 0 6 -4 8 -10 5 -5 -3 -10 -2 -10 4 0 5 -9 13 -20 16 -11 3 -27 13
-35 21 -8 8 -24 16 -34 17 -11 0 -17 5 -15 9 3 4 -2 8 -10 8 -9 0 -16 5 -16
10 0 6 -9 10 -20 10 -11 0 -20 4 -20 8 0 16 -47 31 -59 19 -8 -8 -11 -7 -11 3
0 9 -7 7 -23 -8 -13 -12 -31 -22 -41 -22 -9 0 -15 -4 -12 -9 5 -8 -40 -26 -56
-23 -5 1 -8 -2 -8 -7 0 -5 -9 -11 -20 -14 -11 -3 -20 0 -20 6 0 8 -3 8 -8 0
-9 -14 -92 -13 -92 1 0 4 -7 6 -15 2 -8 -3 -15 -1 -15 4 0 5 -7 7 -15 4 -8 -4
-15 -2 -15 4 0 5 -13 15 -30 22 -16 7 -32 21 -35 31 -4 10 -13 19 -21 19 -8 0
-14 4 -14 9 0 5 -12 23 -26 40 -14 17 -23 35 -19 41 3 5 1 10 -4 10 -6 0 -11
7 -11 15 0 8 -6 15 -12 15 -9 0 -8 4 2 10 10 6 11 10 3 10 -7 0 -13 11 -13 24
0 25 -30 43 -50 31 -5 -3 -10 -2 -10 3 0 5 -7 9 -15 10 -8 1 -22 3 -30 4 -8 1
-15 6 -15 12 0 6 -5 4 -10 -4 -5 -8 -10 -10 -10 -4 0 7 -9 14 -20 17 -11 3
-20 0 -20 -5 0 -7 -5 -6 -13 1 -8 6 -17 8 -20 4 -4 -3 -7 -1 -7 7 0 10 -3 10
-15 0 -12 -10 -16 -9 -21 3 -4 12 -11 14 -31 6 -31 -12 -42 -11 -23 1 10 6 11
10 3 10 -14 0 -66 -51 -90 -87 -8 -13 -19 -20 -24 -17 -5 3 -9 0 -9 -6 0 -6
-13 -16 -30 -21 -17 -6 -27 -16 -23 -22 3 -5 1 -7 -5 -3 -6 3 -13 2 -17 -4 -4
-6 -11 -8 -16 -5 -5 4 -9 1 -9 -5 0 -6 -4 -9 -9 -6 -5 4 -20 2 -34 -3 -16 -6
-28 -6 -36 2 -8 8 -11 8 -11 -2 0 -10 -3 -11 -13 -2 -8 6 -22 12 -33 14 -10 1
-25 6 -31 10 -7 5 -13 5 -13 0 0 -4 -5 0 -11 10 -5 9 -17 17 -24 17 -8 0 -15
5 -15 10 0 6 -7 10 -15 10 -8 0 -15 4 -15 8 0 5 -17 27 -38 50 -22 23 -37 42
-35 42 1 0 -5 8 -14 18 -13 13 -23 16 -35 10 -12 -6 -18 -5 -18 2 0 7 -6 8
-19 0 -14 -7 -21 -6 -24 3 -4 9 -6 9 -6 -1z"/>
</g>
</svg>
