<?xml version="1.0" encoding="UTF-8"?>
<svg id="Livello_2" data-name="Livello 2" xmlns="http://www.w3.org/2000/svg" viewBox="0 0 1841.68 1068.92">
  <defs>
    <style>
      .cls-1 {
        fill: #f7931a;
      }

      .cls-2 {
        fill: #fff;
      }
    </style>
  </defs>
  <g id="OBJECTS">
    <g>
      <g>
        <path class="cls-1" d="m1284.78,368.75l11.01-8.29c1.36-1.02,2.12-2.66,2.02-4.36l-.11-1.77c-.7-11.89-2.02-23.98-3.89-35.93l-.28-1.76c-.27-1.68-1.35-3.11-2.9-3.82l-12.54-5.75c-9.19-4.21-15.98-12.23-18.63-21.98-2.65-9.76-.84-20.11,4.96-28.39l7.87-11.24c.98-1.39,1.19-3.19.57-4.77l-.65-1.66c-4.41-11.19-9.41-22.3-14.87-33.04l-.81-1.59c-.77-1.51-2.25-2.54-3.94-2.73l-13.59-1.58c-10.02-1.15-18.95-6.67-24.5-15.15-5.53-8.46-7.01-18.86-4.05-28.53l4.01-13.1c.49-1.62.15-3.38-.92-4.69l-1.14-1.39c-7.61-9.26-15.78-18.29-24.3-26.85l-1.26-1.27c-1.2-1.2-2.91-1.71-4.59-1.39l-13.47,2.71c-9.9,1.99-20.11-.49-27.99-6.83-7.88-6.34-12.5-15.77-12.67-25.88l-.24-13.8c-.03-1.7-.91-3.28-2.34-4.19l-1.5-.96c-10.04-6.41-20.59-12.45-31.37-17.95l-1.59-.81c-1.51-.77-3.31-.73-4.79.1l-12,6.75c-8.82,4.96-19.3,5.74-28.74,2.15-9.45-3.59-16.76-11.14-20.05-20.7l-4.45-12.92c-.55-1.61-1.87-2.83-3.52-3.25l-1.73-.45c-12.04-3.12-23.32-5.48-35.5-7.44l-1.76-.28c-1.69-.3-3.38.32-4.53,1.57l-9.25,10.06c-6.85,7.44-16.54,11.46-26.67,10.92-10.1-.49-19.38-5.41-25.46-13.49l-8.3-11.02c-1.02-1.36-2.63-2.13-4.35-2.01l-1.78.11c-11.89.71-23.98,2.02-35.93,3.9l-1.76.28c-1.68.26-3.11,1.35-3.82,2.89l-5.75,12.54c-4.21,9.19-12.22,15.98-21.99,18.63-9.75,2.65-20.1.84-28.38-4.96l-7.42-5.2c-.21-.17-.43-.32-.65-.45l-3.16-2.21c-1.39-.97-3.18-1.18-4.76-.57l-1.67.65c-11.19,4.4-22.3,9.41-33.03,14.86l-1.59.81c-1.52.77-2.55,2.25-2.74,3.94l-1.58,13.59c-1.17,10.04-6.69,18.97-15.15,24.51-8.47,5.54-18.86,7.01-28.53,4.06l-13.1-4.01c-1.62-.49-3.39-.14-4.7.93l-1.38,1.13c-9.29,7.63-18.32,15.8-26.84,24.28l-1.27,1.26c-1.21,1.2-1.74,2.93-1.4,4.59l2.71,13.47c1.99,9.91-.5,20.12-6.83,28-6.33,7.87-15.77,12.49-25.88,12.67l-13.8.24c-1.7.03-3.28.91-4.19,2.34l-.96,1.5c-6.45,10.09-12.49,20.65-17.95,31.38l-.81,1.59c-.77,1.51-.73,3.31.1,4.79l.8,1.41c.02.05.05.09.07.14l5.88,10.45c4.96,8.82,5.74,19.29,2.15,28.74-3.59,9.45-11.13,16.76-20.7,20.05l-12.91,4.44c-1.61.55-2.83,1.88-3.26,3.52l-.44,1.72c-1.17,4.5-2.29,9.05-3.3,13.63-1.54,6.98-2.93,14.33-4.14,21.86l-.28,1.76c-.27,1.68.32,3.38,1.57,4.53l10.06,9.26c7.44,6.85,11.42,16.57,10.92,26.67-.5,10.1-5.41,19.37-13.49,25.46l-11.02,8.31c-1.36,1.03-2.11,2.66-2.01,4.35l.11,1.78c.71,11.94,2.02,24.02,3.9,35.92l.28,1.77c.26,1.68,1.35,3.11,2.89,3.82l12.53,5.75c9.19,4.21,15.98,12.22,18.63,21.98,2.65,9.76.84,20.11-4.96,28.39l-7.87,11.24c-.98,1.4-1.19,3.19-.56,4.78l.65,1.64c4.41,11.2,9.41,22.32,14.87,33.05l.81,1.58c.77,1.51,2.24,2.53,3.92,2.73l13.61,1.59c10.02,1.15,18.96,6.67,24.5,15.14,5.53,8.47,7.01,18.87,4.05,28.54l-4,13.09c-.5,1.62-.15,3.39.93,4.7l1.13,1.38c7.6,9.26,15.78,18.29,24.3,26.86l1.26,1.27c1.2,1.2,2.93,1.72,4.59,1.39l13.47-2.71c9.91-2.02,20.11.49,27.99,6.84,7.88,6.33,12.5,15.76,12.67,25.88l.24,13.8c.03,1.7.91,3.27,2.34,4.18l1.5.96c10.02,6.41,20.57,12.44,31.37,17.95l1.59.81c1.51.77,3.31.73,4.78-.09l12.01-6.76c8.82-4.96,19.29-5.74,28.73-2.15,9.45,3.59,16.76,11.13,20.05,20.7l4.44,12.91c.55,1.61,1.88,2.84,3.53,3.27l1.73.45c4.51,1.16,9.04,2.28,13.62,3.29,7.12,1.57,14.27,2.92,21.86,4.14l1.77.28c1.67.27,3.37-.32,4.52-1.57l9.26-10.06c6.85-7.43,16.51-11.44,26.67-10.92,10.09.49,19.37,5.41,25.46,13.49l8.3,11.02c.96,1.28,2.46,2.02,4.05,2.02.1,0,.19,0,.29,0l1.79-.1c11.97-.72,24.06-2.04,35.93-3.9l1.77-.28c1.68-.27,3.11-1.35,3.82-2.89l5.74-12.53c4.21-9.2,12.23-15.99,21.99-18.63,9.76-2.64,20.1-.85,28.38,4.96l11.24,7.86c1.4.97,3.18,1.19,4.76.57l1.66-.65c11.17-4.4,22.29-9.4,33.03-14.86l1.59-.81c1.52-.77,2.55-2.25,2.74-3.93l1.58-13.6c1.17-10.04,6.69-18.98,15.15-24.51,8.49-5.56,18.88-7.04,28.53-4.06l13.1,4.01c1.62.5,3.39.15,4.71-.93l1.37-1.13c9.3-7.64,18.34-15.81,26.86-24.29l1.27-1.26c1.2-1.2,1.73-2.92,1.39-4.59l-2.71-13.46c-1.99-9.91.5-20.12,6.83-27.99,6.34-7.88,15.78-12.5,25.88-12.67l13.81-.24c1.69-.04,3.26-.91,4.17-2.34l.96-1.51c6.44-10.08,12.48-20.63,17.95-31.37l.81-1.58c.77-1.51.74-3.31-.1-4.79l-6.75-12.01c-4.96-8.81-5.75-19.28-2.15-28.74,3.6-9.45,11.14-16.76,20.7-20.05l12.91-4.44c1.61-.56,2.83-1.88,3.26-3.52l.44-1.73c1.17-4.5,2.29-9.04,3.3-13.62,1.55-7.04,2.91-14.19,4.14-21.86l.28-1.76c.27-1.68-.32-3.39-1.58-4.54l-1.17-1.07s-.09-.09-.14-.14l-8.74-8.04c-7.44-6.85-11.42-16.57-10.92-26.66.5-10.1,5.41-19.38,13.49-25.47Zm-614.8,263.41c4.14-4.68,8.29-9.33,12.52-13.82,6.73-6.96,13.76-14.13,21.9-17.71,4.02-2.03,8.39-2.2,12.77-1.65,2.19.49,4.41.94,6.55,1.96,2.2.76,4.29,1.94,6.38,3.12,8.33,4.84,16.11,11.01,24.81,16.21-6.2-7.99-13.51-14.99-22.15-20.61-2.17-1.4-4.35-2.79-6.82-3.83-2.32-1.27-4.94-2.02-7.59-2.74-5.32-1.09-11.37-1.05-16.49,1.15-2.65.87-4.95,2.29-7.32,3.58-2.12,1.54-4.45,2.93-6.39,4.62-4.06,3.25-7.76,6.76-11.39,10.31-6.28,6.29-12.12,12.83-17.91,19.4-6.72-6.91-13.23-14.1-19.37-21.5l2.96-9.68c3.98-13.01,1.99-26.99-5.45-38.38-7.44-11.38-19.46-18.79-32.97-20.38l-1.31-.15c5.41-3.49,10.81-6.94,16.24-10.16,8.31-4.85,17.04-9.16,26.05-10.14,8.98-1.11,18,2.21,24.91,8.75,7,6.44,12.42,14.62,18.36,22.67-3.32-9.38-7.9-18.56-15.06-26.09-1.96-1.7-3.83-3.55-5.92-5.14-2.31-1.29-4.4-3.03-6.95-3.93-2.53-.94-5.04-2.04-7.76-2.28-1.34-.18-2.69-.51-4.03-.55l-4.04.07c-10.88.48-20.46,5.19-29.35,9.83-7.79,4.16-15.05,8.92-22.33,13.49-4.25-8.6-8.23-17.42-11.78-26.32l5.82-8.3c7.8-11.14,10.23-25.06,6.67-38.18-3.56-13.13-12.7-23.9-25.06-29.57l-1.78-.82c5.94-1.84,11.83-3.7,17.65-5.36,8.83-2.46,17.85-4.2,26.19-3.03,4.26.37,7.93,2.3,11.38,4.57,1.57,1.35,3.06,2.86,4.52,4.4,1.17,1.82,2.48,3.55,3.67,5.41,4.47,7.76,6.76,16.86,9.85,25.93.17-9.51-.61-19.33-4.74-28.53-1.09-2.26-2.49-4.42-3.8-6.61-1.63-1.99-3.38-3.98-5.29-5.77-4.15-3.22-9.03-5.94-14.22-6.74-10.36-2.16-20.42-.11-29.72,2.19-8.05,2.02-15.73,4.67-23.36,7.15-1.36-9.43-2.4-18.92-3.01-28.32l8.16-6.15c10.86-8.18,17.47-20.66,18.14-34.25.67-13.58-4.69-26.66-14.69-35.87l-7.42-6.83c.21-1.28.49-2.45.71-3.71,9.38,1.42,18.41,1.49,27.25,1.87,9.07.42,18.15,1.16,26.04,4.39,3.91,1.64,7.44,3.97,10.12,7.15,2.67,3.19,4.47,7.15,5.55,11.38,1.53,5.61,1.8,11.56,1.76,17.62.79-3.4,1.84-6.87,3.17-10.39.01-2.71-.13-5.43-.57-8.18-.86-4.8-2.66-9.61-5.68-13.75-3.04-4.13-7.26-7.31-11.74-9.53-9.08-4.48-18.86-5.41-28.15-6.32-8.98-.84-17.9-.94-26.19-2.4.49-2.5.92-5.15,1.45-7.56.85-3.86,1.78-7.68,2.75-11.48l9.53-3.28c12.86-4.43,23.01-14.26,27.84-26.96,4.83-12.71,3.78-26.8-2.89-38.65l-5-8.89c4.82-9.33,10.07-18.5,15.62-27.3l10.22-.18c13.6-.24,26.29-6.45,34.81-17.05,8.53-10.6,11.87-24.32,9.19-37.65l-2.01-9.96c7.47-7.36,15.32-14.46,23.38-21.15l9.68,2.96c13.03,3.98,27,1.99,38.38-5.46,11.38-7.44,18.8-19.46,20.37-32.96l1.17-10.04c8.57-4.31,17.39-8.27,26.27-11.89,2.51,8.53,4.74,17.2,7.59,25.99,1.69,4.99,3.43,10.06,6.16,14.93,2.49,4.94,6.57,9.4,11.24,12.9,2.6,1.32,5.05,3.11,7.87,3.71l4.11,1.22c1.38.21,2.76.33,4.14.5,1.38.13,2.76.37,4.12.34l4.05-.2,4.03-.21,3.91-.69c10.48-1.62,20.22-5.42,29.67-9.57-10.25,1.45-20.31,3.46-30.29,3.88-9.85.53-19.92-.2-27.08-5.36-6.88-5.47-10.52-14.63-13.52-24.12-1.86-6.18-3.71-12.54-5.68-18.91l.5.35c11.14,7.8,25.06,10.23,38.18,6.67,13.12-3.56,23.9-12.69,29.57-25.05l4.26-9.29c9.57-1.46,19.23-2.49,28.8-3.18-.51,9.07-.88,18.18-.43,27.5.09,2.63.26,5.3.64,7.98.24,2.66.79,5.36,1.36,8.06.39,2.7,1.59,5.38,2.41,8.04.55,1.31,1.26,2.59,1.89,3.88.63,1.29,1.28,2.57,2.22,3.71l2.6,3.5c1.01,1.04,2.1,2,3.15,2.98,2.01,2.13,4.61,3.34,6.92,4.95,2.45,1.34,5.04,2.29,7.54,3.4l7.75,2.24c10.41,2.32,20.88,2.6,31.23,2.41-10.12-2.3-20.19-4.51-29.64-7.83-9.42-3.34-17.87-8.55-22.46-16.26-4.8-7.62-5.64-17.66-6.31-27.55-.31-6.42-.45-12.96-.62-19.54l.36.48c8.18,10.86,20.67,17.48,34.25,18.14,13.58.67,26.66-4.69,35.87-14.69l6.83-7.42c7.03,1.16,13.6,2.51,20.08,3.95-8.66,44.74-15.71,74.27,3.5,82.87,18.54,8.31,157.42,78.75,184.85,211.26-.48-1.76-.91-3.54-1.46-5.28l-4.79-13.52c-1.47-4.54-3.41-8.91-5.39-13.25-1.96-4.35-3.9-8.7-6.02-12.95-4.79-8.24-8.9-16.82-14.45-24.54-2.66-3.92-5.19-7.92-7.94-11.76l-8.78-11.12c-2.85-3.75-6.08-7.2-9.34-10.59-3.26-3.4-6.4-6.89-9.72-10.19l-10.42-9.44c-1.76-1.54-3.41-3.19-5.26-4.63l-5.6-4.22c-14.49-11.77-30.92-20.78-47.4-28.81,60.53,41.71,103.1,104.96,115.9,174.07,6.76,34.37,6.22,69.82-1.14,103.72-7.3,33.9-21.03,66.35-41.13,94.49-39.81,56.52-103.14,95.93-172.39,106.5-34.58,5.4-70.44,3.59-105.14-4.68-34.76-8.31-67.84-24.2-97.75-45.62,25.51,26.59,57.94,47.04,93.4,59.91,8.9,3.07,17.91,6.12,27.22,7.84l13.92,2.97c2.33.48,4.65,1.02,6.99,1.44l7.08.78c9.46.91,18.96,2.47,28.51,2.02,9.54-.08,19.16.26,28.66-1.11,38.24-3.24,75.62-15.79,109.16-34.86,2.1-1.21,4.12-2.53,6.19-3.8-70.96,52.97-172.13,67.52-303.04,8.66-12.1,19.04-34.22,47.95-42.99,59.28l-.17-9.47c-.24-13.59-6.45-26.28-17.04-34.81-10.6-8.52-24.32-11.87-37.65-9.19l-.62.13Zm108.5,50.48c30.66-13.21,86.6-25.29,64.79,45.93-7.26-1.05-10.48-.51-10.48-.51,0,0-1.91-24.15-19.18-33.78-17.26-9.64-35.13-11.64-35.13-11.64Zm104.8,22.44c15.28-10.78,36.15-26.15,51.15-22.43,14.99,3.72,22.47,49.08,22.47,49.08l-10.93.5s-7.52-14.98-24.17-21.56c-16.65-6.59-38.52-5.58-38.52-5.58Zm123.03-12.49c7.07-10.65,17.87-21.86,26.71-20.47,8.85,1.4,28.89,38.84,28.89,38.84l-4.55,1.77s-13.63-12.44-27.36-16.86c-13.73-4.42-23.69-3.28-23.69-3.28Zm15.91-634.42s20.52,15.91,37.32,16c16.79.09,31.2-10.51,31.2-10.51l6.3,3.03s-13.88,18.73-23.95,33.26c-4.66,6.71-11.58,3.92-19.3,1.26-34.46-11.87-32.35-33.83-31.57-43.04Zm95.49,53.93s12.65,10.56,28.15,17.03c15.5,6.47,30.86-1.52,30.86-1.52l4.68,5.19s-24.15,14.58-39.07,24.45c-3.94,2.6-9.16,2.13-12.59-1.11-24.25-22.87-16.54-35.26-12.02-44.06Zm154.99,349.09c-.73,7.08-51.87-.09-53.75-1.62-1.88-1.53,1.72-9.61,4.31-19.53.55-2.1,9.21-.24,17.21,6.25,8.01,6.48,32.96,7.83,32.23,14.9Zm-133.42,147.71s-.97,9.43,3.23,16.81c4.2,7.38,14.1,21.01,14.1,21.01l-8.26,6.29s-23.84-20.24-34.57-22.82c0,0,25.07-20.55,25.51-21.29Zm62.25-373.61c3.16-6.8,18.63-17.81,26.29-16.68,7.66,1.14,20.73,12.34,20.73,12.34-23.03,8.79-33.09,22.95-41.41,43.03-11.26-24.41-8.78-31.9-5.61-38.7Zm-19.42,294.68l38.06,38.78s-12.41,2.47-17.52,1.13c-5.11-1.34-26.92-19.47-28.82-24.05-1.9-4.58.43-7.61,8.29-15.86Zm40.25-187.93s-1.2-4.01-2.75-10.18c-1.55-6.17-.24-14-.24-14l55.23,10.94,1.26,2.77s-40.42,3.98-53.5,10.46Z"/>
        <path class="cls-1" d="m721.39,142.17l2.87,1.85,3.14,1.45c2.04,1.1,4.4,1.5,6.65,2.19,2.3.47,4.72.54,7.08.61,2.34-.36,4.8-.33,7.04-1.08,9.13-2.69,16.67-8.63,22.02-15.62,3.04-3.26,5.01-7.24,7.45-10.84,2-3.87,3.84-7.82,5.48-11.81-2.92,3.25-5.46,6.67-8.16,9.94l-4.25,4.69c-1.37,1.59-2.74,3.16-4.33,4.49l-4.51,4.21-4.89,3.57c-3.34,2.15-6.83,3.98-10.54,4.94-7.35,2.32-15.25.59-22.42-3.05-7.26-3.64-13.7-9.25-20.11-15.04,4.27,7.5,9.89,14.51,17.48,19.5Z"/>
        <path class="cls-1" d="m659.4,214.65l3.39.68c2.24.59,4.63.44,6.97.59,2.34-.07,4.72-.57,7.03-1.04,2.19-.89,4.59-1.43,6.6-2.68,8.26-4.73,14.22-12.25,17.82-20.28,2.21-3.87,3.21-8.2,4.74-12.27,1.05-4.23,1.93-8.49,2.61-12.75-2.09,3.84-3.78,7.75-5.65,11.56l-3.05,5.54c-.97,1.87-1.93,3.71-3.18,5.37l-3.42,5.14-3.93,4.6c-2.76,2.86-5.73,5.45-9.11,7.24-6.61,3.95-14.7,4.1-22.52,2.21-7.91-1.87-15.46-5.83-23.04-9.99,5.89,6.31,12.97,11.83,21.51,14.93l3.22,1.14Z"/>
        <path class="cls-1" d="m655.56,278.94c3.99-4.9,6.01-10.95,6.79-16.71.82-5.8.69-11.44.13-17.17-2.16,5.36-3.49,10.88-5.17,16.02-1.73,5.11-3.68,9.89-6.9,13.66-3.1,3.86-7.33,6.83-11.97,9.46-4.68,2.63-9.85,4.61-15.03,7.18,5.74.14,11.54-.46,17.12-2.43,5.57-1.88,11-5.18,15.04-10.01Z"/>
      </g>
      <path class="cls-1" d="m1058.62,330.44c6.71-44.82-27.42-68.92-74.09-85l15.14-60.72-36.96-9.21-14.74,59.12c-9.72-2.42-19.7-4.71-29.61-6.97l14.84-59.51-36.94-9.21-15.15,60.7c-8.04-1.83-15.94-3.64-23.6-5.55l.04-.19-50.97-12.73-9.83,39.48s27.42,6.28,26.84,6.67c14.97,3.74,17.67,13.64,17.22,21.5l-17.24,69.17c1.03.26,2.37.64,3.84,1.23-1.23-.31-2.55-.64-3.91-.97l-24.17,96.9c-1.83,4.55-6.47,11.37-16.94,8.78.37.54-26.86-6.71-26.86-6.71l-18.35,42.31,48.1,11.99c8.95,2.24,17.72,4.59,26.35,6.8l-15.3,61.41,36.92,9.21,15.15-60.76c10.08,2.74,19.88,5.26,29.45,7.64l-15.1,60.48,36.96,9.21,15.3-61.3c63.03,11.93,110.42,7.12,130.37-49.89,16.07-45.9-.8-72.37-33.96-89.64,24.15-5.57,42.34-21.45,47.19-54.27Zm-84.45,118.42c-11.42,45.9-88.7,21.09-113.76,14.86l20.3-81.36c25.05,6.25,105.4,18.63,93.46,66.5Zm11.43-119.08c-10.42,41.75-74.74,20.54-95.61,15.34l18.4-73.79c20.86,5.2,88.06,14.91,77.21,58.46Z"/>
    </g>
    <g>
      <path class="cls-2" d="m129.94,975.2l4.16-9.54c14.19.33,25.9,2.49,35.12,6.49,9.22,4,16.11,9.54,20.68,16.64,4.57,7.1,6.85,15.29,6.85,24.59,0,9.95-2.29,18.8-6.85,26.55-4.57,7.75-11.38,13.87-20.43,18.35-9.05,4.49-20.35,6.73-33.89,6.73H0l14.19-94.21L0,881.47h130.68c16.97,0,30.18,3.96,39.64,11.87,9.46,7.92,14.19,18.89,14.19,32.91,0,7.67-1.8,15.01-5.38,22.02-3.59,7.02-9.34,12.93-17.25,17.74-7.91,4.81-18.56,7.87-31.93,9.18Zm-79.78,78.06l-19.58-23.74h91.28c7.34,0,13.05-1.79,17.13-5.38,4.08-3.59,6.12-8.57,6.12-14.93s-2.2-11.46-6.61-15.29c-4.4-3.83-10.93-5.75-19.58-5.75H43.56v-34.75h68.52c5.87,0,10.81-1.75,14.81-5.26,4-3.51,6-8.28,6-14.32,0-4.89-1.71-8.93-5.14-12.11-3.43-3.18-8.32-4.77-14.68-4.77H30.83l19.33-23.74,12.48,77.57-12.48,82.47Z"/>
      <path class="cls-2" d="m242.26,911.57c-8.65,0-15.66-2.16-21.04-6.48-5.38-4.32-8.08-10.16-8.08-17.5s2.69-13.46,8.08-17.86c5.38-4.4,12.4-6.61,21.04-6.61s16.11,2.2,21.41,6.61c5.3,4.4,7.95,10.36,7.95,17.86s-2.65,13.18-7.95,17.5c-5.3,4.32-12.44,6.48-21.41,6.48Zm-24.96,11.5l25.21,4.89,24.96-4.89v141.93h-50.17v-141.93Z"/>
      <path class="cls-2" d="m282.64,962.23v-21.78l28.39-11.5,21.54-41.36h28.39v37.69h58.73v36.95h-58.73v41.11c0,10.12,2.04,17.21,6.12,21.29,4.08,4.08,11.5,6.12,22.27,6.12,6.85,0,12.93-.61,18.23-1.83,5.3-1.22,10.16-2.81,14.56-4.77v37.69c-4.89,1.8-11.34,3.43-19.33,4.89-8,1.47-16.24,2.2-24.72,2.2-15.5,0-28.18-2.37-38.05-7.1-9.87-4.73-17.17-11.54-21.9-20.43-4.73-8.89-7.1-19.29-7.1-31.2v-47.96h-28.39Z"/>
      <path class="cls-2" d="m604.68,1006.03c-1.31,12.56-5.87,23.58-13.7,33.04-7.83,9.46-17.99,16.8-30.47,22.02-12.48,5.22-26.47,7.83-41.97,7.83-17.13,0-32.22-3.1-45.27-9.3-13.05-6.2-23.25-14.84-30.59-25.94-7.34-11.09-11.01-23.9-11.01-38.42s3.67-27.57,11.01-38.66c7.34-11.09,17.54-19.78,30.59-26.06,13.05-6.28,28.14-9.42,45.27-9.42,15.5,0,29.49,2.65,41.97,7.95,12.48,5.3,22.64,12.64,30.47,22.02,7.83,9.38,12.4,20.43,13.7,33.16h-49.68c-1.8-8.32-5.96-14.72-12.48-19.21-6.53-4.48-14.52-6.73-23.98-6.73-7.34,0-13.75,1.43-19.21,4.28-5.47,2.86-9.71,7.02-12.72,12.48-3.02,5.47-4.53,12.2-4.53,20.19s1.51,14.48,4.53,19.94c3.02,5.47,7.26,9.63,12.72,12.48,5.46,2.86,11.87,4.28,19.21,4.28,9.46,0,17.5-2.36,24.1-7.1,6.61-4.73,10.73-11.01,12.36-18.84h49.68Z"/>
      <path class="cls-2" d="m707.7,1068.92c-17.95,0-33.61-3.06-46.98-9.18-13.38-6.12-23.82-14.76-31.32-25.94-7.51-11.17-11.26-24.02-11.26-38.54s3.75-27.81,11.26-38.91c7.5-11.09,17.94-19.74,31.32-25.94,13.37-6.2,29.04-9.3,46.98-9.3s33.4,3.1,46.86,9.3c13.46,6.2,23.94,14.85,31.45,25.94,7.5,11.1,11.26,23.98,11.26,38.66s-3.75,27.61-11.26,38.79c-7.51,11.18-17.99,19.82-31.45,25.94-13.46,6.12-29.08,9.18-46.86,9.18Zm0-36.95c8.16,0,15.13-1.47,20.92-4.4,5.79-2.94,10.24-7.13,13.34-12.6,3.1-5.46,4.65-12.03,4.65-19.7s-1.55-14.48-4.65-19.94c-3.1-5.46-7.55-9.67-13.34-12.6-5.79-2.94-12.77-4.4-20.92-4.4s-15.17,1.47-21.04,4.4c-5.87,2.94-10.36,7.14-13.46,12.6-3.1,5.47-4.65,12.03-4.65,19.7s1.55,14.28,4.65,19.82c3.1,5.55,7.59,9.79,13.46,12.72,5.87,2.94,12.88,4.4,21.04,4.4Z"/>
      <path class="cls-2" d="m843.27,911.57c-8.65,0-15.66-2.16-21.04-6.48-5.38-4.32-8.08-10.16-8.08-17.5s2.69-13.46,8.08-17.86c5.38-4.4,12.4-6.61,21.04-6.61s16.11,2.2,21.41,6.61c5.3,4.4,7.95,10.36,7.95,17.86s-2.65,13.18-7.95,17.5c-5.3,4.32-12.44,6.48-21.41,6.48Zm-24.96,11.5l25.21,4.89,24.96-4.89v141.93h-50.17v-141.93Z"/>
      <path class="cls-2" d="m889.27,925.28h50.17l9.05,55.79v83.94h-49.92v-91.52l-9.3-48.21Zm110.61-4.16c13.37,0,24.8,2.69,34.26,8.07,9.46,5.38,16.68,12.97,21.66,22.76,4.97,9.79,7.46,21.37,7.46,34.75v78.31h-49.92v-70.97c0-10.44-2.65-18.43-7.95-23.98-5.3-5.54-12.93-8.32-22.88-8.32-6.85,0-12.85,1.47-17.99,4.4-5.14,2.94-9.1,7.1-11.87,12.48-2.78,5.38-4.16,11.75-4.16,19.09l-15.42-8.07c1.96-14.84,6.12-27.37,12.48-37.56,6.36-10.19,14.19-17.9,23.49-23.12,9.3-5.22,19.58-7.83,30.83-7.83Z"/>
      <path class="cls-2" d="m1277.37,975.2l4.16-9.54c14.19.33,25.9,2.49,35.12,6.49,9.21,4,16.11,9.54,20.68,16.64,4.57,7.1,6.85,15.29,6.85,24.59,0,9.95-2.29,18.8-6.85,26.55-4.57,7.75-11.38,13.87-20.43,18.35-9.06,4.49-20.35,6.73-33.89,6.73h-135.57l14.19-94.21-14.19-89.32h130.68c16.96,0,30.18,3.96,39.64,11.87,9.46,7.92,14.19,18.89,14.19,32.91,0,7.67-1.8,15.01-5.38,22.02-3.59,7.02-9.34,12.93-17.25,17.74-7.92,4.81-18.56,7.87-31.93,9.18Zm-79.78,78.06l-19.58-23.74h91.28c7.34,0,13.05-1.79,17.13-5.38,4.08-3.59,6.12-8.57,6.12-14.93s-2.2-11.46-6.61-15.29c-4.41-3.83-10.93-5.75-19.58-5.75h-75.37v-34.75h68.52c5.87,0,10.81-1.75,14.81-5.26,4-3.51,6-8.28,6-14.32,0-4.89-1.71-8.93-5.14-12.11-3.43-3.18-8.32-4.77-14.68-4.77h-82.22l19.33-23.74,12.48,77.57-12.48,82.47Z"/>
      <path class="cls-2" d="m1446.96,1068.92c-16.97,0-32.1-3.1-45.39-9.3-13.3-6.2-23.78-14.89-31.45-26.06-7.67-11.17-11.5-24.18-11.5-39.03s3.67-27.29,11.01-38.3c7.34-11.01,17.41-19.62,30.22-25.82,12.8-6.2,27.29-9.3,43.44-9.3s31.12,3.63,42.95,10.89c11.83,7.26,20.96,17.5,27.41,30.71,6.44,13.21,9.67,28.8,9.67,46.74h-124.31v-30.1h96.17l-16.4,10.52c-.65-7.18-2.45-13.25-5.38-18.23-2.94-4.97-6.81-8.77-11.62-11.38-4.81-2.61-10.56-3.92-17.25-3.92-7.34,0-13.62,1.47-18.84,4.4-5.22,2.94-9.3,6.97-12.23,12.11-2.94,5.14-4.41,11.13-4.41,17.99,0,8.81,2,16.27,6,22.39,4,6.12,9.87,10.81,17.62,14.07,7.75,3.27,17.25,4.89,28.51,4.89,10.28,0,20.51-1.35,30.71-4.04,10.19-2.69,19.45-6.48,27.77-11.38v31.81c-9.63,6.53-20.6,11.54-32.91,15.05-12.32,3.51-25.57,5.26-39.77,5.26Z"/>
      <path class="cls-2" d="m1626.58,1068.92c-16.97,0-32.1-3.1-45.39-9.3-13.3-6.2-23.78-14.89-31.45-26.06-7.67-11.17-11.5-24.18-11.5-39.03s3.67-27.29,11.01-38.3c7.34-11.01,17.41-19.62,30.22-25.82,12.8-6.2,27.29-9.3,43.44-9.3s31.12,3.63,42.95,10.89c11.83,7.26,20.96,17.5,27.41,30.71,6.44,13.21,9.67,28.8,9.67,46.74h-124.31v-30.1h96.17l-16.4,10.52c-.65-7.18-2.45-13.25-5.38-18.23-2.94-4.97-6.81-8.77-11.62-11.38-4.81-2.61-10.57-3.92-17.25-3.92-7.34,0-13.62,1.47-18.84,4.4-5.22,2.94-9.3,6.97-12.23,12.11-2.94,5.14-4.41,11.13-4.41,17.99,0,8.81,2,16.27,6,22.39,4,6.12,9.87,10.81,17.62,14.07,7.75,3.27,17.25,4.89,28.51,4.89,10.28,0,20.51-1.35,30.71-4.04,10.19-2.69,19.45-6.48,27.77-11.38v31.81c-9.63,6.53-20.6,11.54-32.91,15.05-12.32,3.51-25.57,5.26-39.77,5.26Z"/>
      <path class="cls-2" d="m1716.88,925.28h50.9l8.32,49.92v89.81h-49.92v-92.75l-9.3-46.98Zm124.8-2.2v42.58c-4.89-.98-9.51-1.67-13.83-2.08-4.32-.4-8.28-.61-11.87-.61-7.18,0-13.79,1.43-19.82,4.28-6.04,2.86-10.89,7.55-14.56,14.07-3.67,6.53-5.51,15.26-5.51,26.18l-9.54-11.75c1.3-10.11,3.26-19.62,5.87-28.51,2.61-8.89,6.16-16.8,10.64-23.74,4.49-6.93,10.07-12.4,16.76-16.4,6.69-4,14.84-6,24.47-6,2.77,0,5.63.16,8.57.49,2.94.33,5.87.82,8.81,1.47Z"/>
    </g>
  </g>
</svg>